<?xml version="1.0" encoding="UTF-8" standalone="no"?>
<!-- Created with Inkscape (http://www.inkscape.org/) -->
<svg xmlns:rdf="http://www.w3.org/1999/02/22-rdf-syntax-ns#" xmlns="http://www.w3.org/2000/svg" height="519" width="1401" version="1.0" xmlns:cc="http://creativecommons.org/ns#" xmlns:dc="http://purl.org/dc/elements/1.1/">
 <defs></defs>
 <metadata>
  <rdf:RDF>
   <cc:Work rdf:about="">
    <dc:format>image/svg+xml</dc:format>
    <dc:type rdf:resource="http://purl.org/dc/dcmitype/StillImage"/>
    <dc:title/>
   </cc:Work>
  </rdf:RDF>
 </metadata>
 <g transform="translate(187.5,-288.86218)">
  <path fill="#d40000" d="m-142.65,673.19c-12.494-0.30396-15.765-0.67329-16.209-1.83-0.62814-1.6369,5.9761-107.12,6.9495-111,0.56356-2.2454,1.1342-2.5043,5.5201-2.5043,3.6814,0,4.8916,0.3711,4.8916,1.5,0,0.825,0.3696,1.5,0.82133,1.5s1.8778,17.478,3.169,38.84l2.3477,38.84,3.831,3.2163,3.831,3.2163v-25.556-25.556h23.5,23.5v20.5,20.5h8.2558,8.2558l2.3445-5.1105c3.6442-7.9435,7.7343-36.889,5.2125-36.889-0.64868,0-1.0687-2.5547-1.0687-6.5,0-5.1111,0.32051-6.5,1.5-6.5,0.825,0,1.5-0.45,1.5-1,0-0.625,6-1,16-1,13.556,0,16,0.22917,16,1.5,0,0.825,0.45,1.5,1,1.5,0.5641,0,1,2.8333,1,6.5,0,4.66-0.36727,6.5-1.2974,6.5-0.96804,0-1.2126,1.7136-0.96346,6.75,0.40897,8.2665,2.1988,23.341,2.9074,24.487,0.56107,0.90782,1.1582,0.077,27.843-38.737,9.8314-14.3,19.181-27.688,20.777-29.75l2.9014-3.75,14.166,0.009,14.166,0.009,7.3892,14.491c5.5151,10.816,7.8612,14.491,9.25,14.491,1.0234,0,1.8608,0.45,1.8608,1s-0.43588,1-0.96862,1c-0.53273,0-0.70959,0.675-0.39301,1.5,0.31659,0.825,1.4275,1.5,2.4686,1.5,2.1237,0,2.5668,1.5832,0.64301,2.2975-0.69314,0.25737,0.02352,0.97011,1.6087,1.5999,2.4209,0.96181,2.6637,1.3707,1.5856,2.6698-1.0699,1.2892-0.92317,1.6256,0.91935,2.1074,1.5956,0.41725,2.0304,1.0841,1.5971,2.4494-0.41657,1.3125-0.10435,1.876,1.0393,1.876,1.1797,0,1.4581,0.55674,1,2-0.60142,1.8949-0.1797,2,8.0262,2,7.82,0,8.7118-0.1942,9.184-2,0.28766-1.1,0.92053-2,1.4064-2,0.48585,0,0.88337-0.85186,0.88337-1.893,0-1.0412,0.675-2.152,1.5-2.4686,0.825-0.31658,1.5-1.3815,1.5-2.3664,0-0.98496,0.88743-2.345,1.9721-3.0224,1.1562-0.72208,1.7325-1.8558,1.393-2.7405-0.37416-0.97505,0.0134-1.509,1.0953-1.509,1.2193,0,1.5018-0.54358,1.0396-2-0.43734-1.378-0.1797-2,0.82837-2,0.80472,0,2.9238-2.2762,4.7091-5.0583,3.4825-5.427,5.7486-5.4949,3.8735-0.11603-0.61342,1.7597-0.83651,3.9259-0.49576,4.8139,0.36606,0.95393-0.10358,2.1633-1.1478,2.9557-1.071,0.81273-1.2749,1.3537-0.51737,1.373,1.8685,0.0475,1.5105,2.0318-0.36663,2.0318-1.1574,0-1.4583,0.60531-1.0594,2.1308,0.32298,1.2351-0.0794,2.7675-0.95725,3.6453-1.237,1.237-1.2719,1.6744-0.1906,2.3875,1.05,0.69237,0.95035,1.0928-0.48156,1.9354-1.3448,0.79138-1.5297,1.3947-0.72448,2.3649,0.80786,0.9734,0.63237,1.4836-0.69455,2.0194-1.5945,0.64385-1.5461,0.80539,0.47448,1.5846,2.2176,0.85514,3.1958,3.9321,1.25,3.9321-0.55,0-1,1.575-1,3.5v3.5h7.5,7.5v22.5,22.5h-7.3268-7.3268l0.4403,3,0.44031,3h-23.614c-22.947,0-23.614-0.0565-23.614-2,0-1.1,0.45-2,1-2s1-0.45,1-1c0-0.578-3.173-1-7.5191-1h-7.5191l0.26913-22.25,0.26913-22.25,7.25-0.29381,7.25-0.29381v-3.4562c0-2.4055-0.456-3.4562-1.5-3.4562-2.3128,0-1.7744-3.1155,0.64786-3.7489,2.0831-0.54474,2.0908-0.60342,0.25487-1.9459-1.5265-1.1162-1.6287-1.5475-0.52788-2.2279,1.0964-0.67764,0.99708-1.0599-0.50487-1.9422-1.5964-0.9378-1.6546-1.2397-0.39801-2.063,1.256-0.823,1.2084-1.0656-0.32439-1.6538-1.3004-0.49901-1.6325-1.3422-1.2029-3.0538,0.43128-1.7183,0.17313-2.3645-0.94466-2.3645-1.1413,0-1.3762-0.64496-0.91064-2.5,0.39139-1.5594,0.20328-2.5-0.5-2.5-0.68957,0-0.8944-0.92861-0.52738-2.3909,1.3441-5.3553-1.6086-3.1338-5.2145,3.923l-3.83,7.52-14.904-0.13-14.903-0.13-23.847,19.83c-13.116,10.904-23.837,20.511-23.824,21.349,0.03897,2.7034,3.9447,10.263,6.5496,12.678,2.4289,2.251,3.1578,2.3461,17.98,2.3461h15.448v12,12l-39.75,0.002c-21.862,0.00084-55.5,0.16101-74.75,0.35592s-42.044,0.18301-50.653-0.0264zm5.8016-12.081c-0.33516-3.7125-1.7489-25.425-3.1417-48.25-3.2182-52.74-2.8583-50-6.5686-50-2.5368,0-2.9401,0.37612-2.9487,2.75-0.006,1.5125-1.3485,23.225-2.9845,48.25s-2.9815,47.412-2.99,49.75l-0.0155,4.25h9.6292,9.6292zm9.351,2.8181c0-3.2274-0.53752-4.3146-3-6.0681l-3-2.1362v6.0681,6.0681h3c2.8247,0,3-0.22979,3-3.9319zm41-8.5681,0-12.5-17.5,0-17.5,0,0,12.5,0,12.5,17.5,0,17.5,0zm58,5.5,0-6-26,0-26,0,0,6,0,6,26,0,26,0zm45,0,0-6-19,0-19,0,0,6,0,6,19,0,19,0zm101-26.5,0-25.5-20,0-20,0,0,25.5,0,25.5,20,0,20,0zm-52.253-7.1956c-0.1771-5.9424-0.32266-1.3544-0.32348,10.196s0.14408,16.412,0.322,10.804c0.17792-5.6076,0.17859-15.058,0.0015-21zm2.9991,0.44565c-0.17825-5.6375-0.32409-1.025-0.32409,10.25s0.14584,15.888,0.32409,10.25c0.17825-5.6375,0.17825-14.862,0-20.5zm3,0c-0.17825-5.6375-0.32409-1.025-0.32409,10.25s0.14584,15.888,0.32409,10.25c0.17825-5.6375,0.17825-14.862,0-20.5zm3.0009-0.44565c-0.1771-5.9424-0.32266-1.3544-0.32348,10.196s0.14408,16.412,0.322,10.804c0.17792-5.6076,0.17859-15.058,0.0015-21zm49,0c-0.1771-5.9424-0.32266-1.3544-0.32348,10.196s0.14408,16.412,0.322,10.804c0.17792-5.6076,0.17859-15.058,0.001-21zm3,0c-0.1771-5.9424-0.32266-1.3544-0.32348,10.196s0.14408,16.412,0.322,10.804c0.17792-5.6076,0.17859-15.058,0.001-21zm3,0c-0.1771-5.9424-0.32266-1.3544-0.32348,10.196s0.14408,16.412,0.322,10.804c0.17792-5.6076,0.17859-15.058,0.001-21zm3,0c-0.1771-5.9424-0.32266-1.3544-0.32348,10.196s0.14408,16.412,0.322,10.804c0.17792-5.6076,0.17859-15.058,0.001-21zm-262.94,19.803-3.3104-2.9719-0.32817,2.5538c-0.23309,1.8139,0.63608,3.5524,3,6.0005l3.3282,3.4467,0.31039-3.0286c0.24373-2.3783-0.40044-3.6668-3-6.0005zm112.02-4.3578c-1.7239-3.4375-3.292-6.4375-3.4848-6.6667-0.19274-0.22916-0.35044,2.5833-0.35044,6.25v6.6667h3.4848,3.4848zm-9.8352-0.75c0-1.9487-0.66667-2-26-2s-26,0.0513-26,2,0.66667,2,26,2,26-0.0513,26-2zm-58-5c0-0.62857-6.5-1-17.5-1s-17.5,0.37143-17.5,1,6.5,1,17.5,1,17.5-0.37143,17.5-1zm46.601-15.173c14.317-14.076,14.452-14.314,12.781-22.666l-0.61772-3.0886-13.338,12.626c-9.7388,9.2184-13.517,13.459-14,15.714-0.3637,1.6984-1.4676,4.7754-2.4531,6.8379l-1.7918,3.75h3.0103c2.5166,0,5.2077-2.1604,16.409-13.173zm9.2804,7.2257c4.5295-4.2058,6.1982-6.403,5.75-7.5709-0.34729-0.90504-0.63144-2.9962-0.63144-4.6471,0-1.6508-0.38429-2.8516-0.85397-2.6682-0.46969,0.18333-5.7375,4.9458-11.706,10.583l-10.852,10.25,5.9562-0.0109c5.8816-0.0107,6.0362-0.0851,12.338-5.9363zm6.1466,3.8947c2.3049-4.3067,0.60688-5.0082-3.528-1.4575l-4,3.4348,3.2148,0.0375c2.2437,0.0262,3.5466-0.58244,4.3132-2.0149zm-62.023-2.94c0-0.62857-6.5-1-17.5-1s-17.5,0.37143-17.5,1,6.5,1,17.5,1,17.5-0.37143,17.5-1zm94.668-21.856,23.168-19.144,14.069,0,14.069,0,3.5032-6.9564,3.5032-6.9564-18.014-0.29356-18.014-0.29355-21.227,23.893c-24.276,27.325-28.94,32.757-26.187,30.501,1.078-0.88355,12.386-10.221,25.128-20.75zm-94.668,13.86c0-1.9238-0.66667-2-17.5-2s-17.5,0.0762-17.5,2,0.66667,2,17.5,2,17.5-0.0762,17.5-2zm0-7.5c0-1.2762-2.6111-1.5-17.5-1.5s-17.5,0.22381-17.5,1.5,2.6111,1.5,17.5,1.5,17.5-0.22381,17.5-1.5zm47.667-12.702c10.787-10.682,13.333-13.736,13.333-16,0-2.7671-0.06841-2.7975-6.25-2.7799l-6.25,0.0178-6.6946,6.5349-6.6946,6.5349-0.61201,7.1973c-0.33661,3.9585-0.8201,8.2098-1.0744,9.4473-0.25432,1.2375-0.15364,2.25,0.22374,2.25,0.37737,0,6.6859-5.941,14.019-13.202zm47.865-6.5477c8.6397-9.7625,17.223-19.212,19.074-21l3.365-3.25h17.527,17.527l-3.5251-7-3.5251-7h-14.302-14.302l-10.12,14.75c-5.5661,8.1125-14.229,20.712-19.25,28-5.0214,7.2875-8.9153,13.25-8.6529,13.25,0.26233,0,7.5458-7.9875,16.185-17.75zm-95.532,11.75c0-0.62857-6.5-1-17.5-1s-17.5,0.37143-17.5,1,6.5,1,17.5,1,17.5-0.37143,17.5-1zm171.5-4c-0.33992-0.55-1.9415-1-3.559-1s-2.941,0.45-2.941,1,1.6016,1,3.559,1c2.118,0,3.3088-0.40488,2.941-1zm30.5,0c0-0.55-1.5484-1-3.441-1-1.8925,0-3.7191,0.45-4.059,1-0.37325,0.60393,0.98962,1,3.441,1,2.2325,0,4.059-0.45,4.059-1zm-210.8-2.7457c-5.1153-0.18186-13.215-0.181-18,0.002-4.7847,0.18291-0.59942,0.3317,9.3006,0.33065,9.9-0.001,13.815-0.1507,8.6994-0.33256zm178.3-1.25c-0.33992-0.55-1.7165-1-3.059-1s-2.441,0.45-2.441,1,1.3766,1,3.059,1c1.7847,0,2.8016-0.41658,2.441-1zm33.5,0c0-0.55-1.3234-1-2.941-1-1.6175,0-3.2191,0.45-3.559,1-0.3678,0.59512,0.82295,1,2.941,1,1.9575,0,3.559-0.45,3.559-1zm-36-4c0-0.55-1.1516-1-2.559-1-1.4514,0-2.2915,0.43284-1.941,1,0.33992,0.55,1.4915,1,2.559,1s1.941-0.45,1.941-1zm37-0.56955c0-1.0423-0.72946-1.4622-2.1717-1.25-3.2015,0.47108-3.5444,2.8196-0.41166,2.8196,1.6805,0,2.5833-0.54853,2.5833-1.5696zm-164.5-7.4304,3.9059-4-4.703,0-4.703,0,0,4c0,2.2,0.35867,4,0.79705,4s2.5547-1.8,4.703-4zm124.5,3c0-0.55-0.675-1-1.5-1s-1.5,0.45-1.5,1,0.675,1,1.5,1,1.5-0.45,1.5-1zm42-0.5c0-0.825-0.62686-1.5-1.393-1.5-0.76616,0-1.652,0.675-1.9686,1.5-0.39152,1.0203,0.054,1.5,1.393,1.5,1.0832,0,1.9686-0.67464,1.9686-1.5zm-45-4c0-0.825-0.43588-1.5-0.96862-1.5-0.53273,0-0.70959,0.675-0.39301,1.5,0.31659,0.825,0.75246,1.5,0.96862,1.5,0.21615,0,0.39301-0.675,0.39301-1.5zm46.5-0.5c0.33992-0.55,0.16803-1-0.38197-1s-1.2781,0.45-1.618,1c-0.33992,0.55-0.16803,1,0.38197,1s1.2781-0.45,1.618-1z"/>
  <path fill="#038f2e" d="M767.88,770.23c0-0.55-0.67-1-1.49-1-1.29,0-1.52-5.13-1.75-37.89l-0.26-37.9-9.05,7.3c-7.48,6.02-9.52,7.2-11.75,6.77-2.53-0.48-2.7-0.85-2.7-5.81,0-5.21,0.09-5.37,5-8.97l5-3.67v-133.92-133.91h-12.91-12.9l-8.02-8.75c-4.41-4.8-8.34-8.42-8.74-8.02-0.39,0.4-0.76,2.19-0.82,3.99s-0.79,3.81-1.61,4.46c-1.32,1.03-1.29,1.26,0.25,1.85,2.42,0.94,2.2,2.47-0.36,2.47-1.75,0-2,0.42-1.48,2.5,0.39,1.57,0.2,2.5-0.51,2.5-0.65,0-0.91,0.87-0.6,2.06,0.32,1.21,0,2.27-0.77,2.56-1.73,0.67-1.44,5.57,0.43,7.02,1.2,0.94,1.23,1.42,0.18,2.69-0.71,0.85-1.14,2.81-0.96,4.36,0.31,2.76,0.44,2.81,7.59,3.1l7.27,0.3-0.27,22.2-0.27,22.21-7.07,0.29-7.07,0.29,0.43,2.96,0.44,2.96h-23.62c-22.94,0-23.61-0.06-23.61-2,0-1.1,0.45-2,1-2s1-0.43,1-0.96c0-0.52-3.26-1.09-7.25-1.25l-7.25-0.29v-22-22l7.14-0.29c6.97-0.29,7.15-0.36,7.55-3.09,0.53-3.59,0-5.12-1.77-5.12-1.97,0-1.78-1.69,0.33-2.93,1.53-0.9,1.56-1.16,0.25-2.05-1.33-0.91-1.33-1.14,0-2.1,1.13-0.81,1.19-1.2,0.25-1.58-0.69-0.28-1.25-1.6-1.25-2.93,0-1.32-0.48-2.41-1.07-2.41-0.6,0-0.8-0.85-0.45-1.93,0.39-1.25-0.02-2.32-1.19-3.06-1.2-0.76-1.4-1.29-0.6-1.63,0.66-0.28,0.95-1.15,0.65-1.94s-0.85-1.24-1.22-1.01c-0.84,0.51-0.85-8.04-0.02-8.87,0.33-0.33,1.8,1.21,3.27,3.42,1.46,2.21,3.38,4.02,4.27,4.02,1.23,0,1.34,0.31,0.49,1.34-1.32,1.59-0.5,2.66,2.04,2.66,1,0,1.83,0.45,1.83,1s-0.45,1-1,1c-1.85,0-1.02,2.18,1.03,2.72,1.47,0.38,1.86,1.06,1.41,2.47-0.46,1.43-0.06,2.09,1.5,2.5,1.52,0.4,1.95,1.08,1.52,2.43-0.41,1.29-0.11,1.88,0.97,1.88,0.9,0,1.57,0.85,1.57,2,0,1.83,0.67,2,8.09,2,7.26,0,8.15-0.21,8.62-2,0.29-1.1,0.92-2,1.41-2,0.48,0,0.88-0.85,0.88-1.9,0-1.04,0.67-2.15,1.5-2.46,0.82-0.32,1.5-1.39,1.5-2.37,0-0.99,0.89-2.35,1.97-3.02,1.09-0.68,1.73-1.86,1.44-2.61-0.29-0.76,0.21-1.66,1.1-2.01,1.1-0.42,1.42-1.28,0.99-2.63-0.48-1.52-0.18-2,1.23-2,1.09,0,2.7-1.45,3.85-3.45,1.08-1.9,6.41-8.2,11.85-14l9.88-10.55h51.34c44.98,0,51.35,0.18,51.35,1.5,0,1.28-2.67,1.5-18,1.5h-18v10.58c0,8.02,0.3,10.49,1.25,10.18,0.69-0.23,1.84-1.61,2.55-3.09l1.31-2.67h15.44c13.07,0,15.45,0.23,15.45,1.5,0,1.26-2.26,1.5-14.34,1.5-14.28,0-14.34,0.01-15.47,2.47-0.62,1.36-2.26,2.76-3.66,3.11-2.42,0.61-2.53,0.95-2.53,8.03,0,4.06,0.42,7.39,0.93,7.39,1.42,0,4.07-2.97,4.07-4.57,0-1.18,2.73-1.43,15.5-1.43,13.11,0,15.5,0.23,15.5,1.5,0,1.26-2.2,1.5-13.81,1.5h-13.82l-2.21,3c-1.22,1.65-3.11,3-4.19,3-1.94,0-1.97,0.98-1.97,62v62h18c15.33,0,18,0.22,18,1.5s-2.67,1.5-18,1.5h-18v10.58c0,8.02,0.3,10.49,1.25,10.18,0.69-0.23,1.84-1.61,2.55-3.09l1.31-2.67h15.44c13.07,0,15.45,0.23,15.45,1.5,0,1.26-2.27,1.5-14.43,1.5-13.4,0-14.48,0.14-15.05,1.94-0.34,1.06-1.94,2.52-3.57,3.24-2.88,1.28-2.95,1.48-2.95,8.67,0,6.3,0.23,7.27,1.58,6.75,0.87-0.33,1.77-0.6,2-0.6s0.42-0.64,0.42-1.43,0.71-2.14,1.57-3c1.28-1.28,4.22-1.57,16-1.57,13.76,0,14.43,0.09,14.43,2,0,1.9-0.67,2-13.81,2h-13.82l-2.21,3c-1.22,1.65-3.11,3-4.19,3-1.92,0-1.97,0.81-1.97,29.57v29.56l2.95-2.1c2.52-1.79,3.26-1.92,5-0.83,1.59,0.99,2.05,2.33,2.05,5.98,0,4.69-0.01,4.7-8.51,11.5-7.74,6.21-8.45,7.08-8,9.69,0.28,1.58,0.51,4.85,0.51,7.25v4.38h6,6v3.94c0,3.59,0.54,4.4,6.25,9.26,3.44,2.93,7.15,6.1,8.25,7.05,1.1,0.94,2.86,2.33,3.9,3.08,1.05,0.75,1.61,1.84,1.26,2.41-0.42,0.68-3.87-0.14-9.79-2.34-5.03-1.87-9.31-3.4-9.51-3.4s-0.36,3.6-0.36,8v8h-9-9v20.57c0,16.49-0.28,20.85-1.43,22-1.62,1.62-10.57,1.98-10.57,0.43zm6-44.5c0-35.91-0.45-42.99-2.39-37.92-0.34,0.87-0.61,18.64-0.61,39.5,0,33.04,0.19,37.92,1.5,37.92s1.5-5.06,1.5-39.5zm17-6.5c0-0.55-2.03-1-4.5-1-2.48,0-4.5,0.45-4.5,1s2.02,1,4.5,1c2.47,0,4.5-0.45,4.5-1zm0-10c0-2.89-0.17-3-4.5-3s-4.5,0.11-4.5,3,0.17,3,4.5,3,4.5-0.11,4.5-3zm12.5,0.39c-3.87-2.98-5.5-3.57-5.5-2.01,0,0.8,1.24,1.9,2.75,2.46,4.02,1.46,5.02,1.3,2.75-0.45zm-2.64-5.31c-1.3-1.05-2.55-1.72-2.79-1.49-0.51,0.51,3.07,3.33,4.29,3.38,0.47,0.01-0.2-0.83-1.5-1.89zm-46.19-9.63c3.75-3.05,7.5-6.1,8.33-6.77,0.82-0.68,4.54-3.66,8.25-6.63,3.71-2.98,6.75-5.8,6.75-6.28,0-1.26-1.1-0.47-16.79,12.17-12.28,9.88-15.63,13.06-13.79,13.06,0.23,0,3.49-2.5,7.25-5.55zm36.33,4.55c0-0.55-2.03-1-4.5-1-2.48,0-4.5,0.45-4.5,1s2.02,1,4.5,1c2.47,0,4.5-0.45,4.5-1zm-22.75-24.8c0.98-1.19,1.3-30.22,1.48-136.36l0.24-134.84h-28.54c-24.06,0-28.41,0.22-27.73,1.39,0.44,0.76,3.43,4.2,6.66,7.65l5.85,6.26,18.29-0.58,18.28-0.57,0.57,2.84c0.33,1.67,1.41,3.12,2.61,3.49,2.45,0.78,2.73,3.52,0.35,3.52-2.04,0-6.31-3.84-6.31-5.68,0-0.74-1.09-1.32-2.5-1.32h-2.5v83,83h3.87c3.49,0,3.94,0.29,4.46,2.92,0.35,1.73,1.42,3.18,2.63,3.56,2.45,0.78,2.73,3.52,0.35,3.52-2.04,0-6.31-3.84-6.31-5.68,0-0.74-1.09-1.32-2.5-1.32h-2.5v48.06,48.07l6-4.71c3.3-2.6,6.56-5.39,7.25-6.22zm6.75-6.14c0-1.07-0.45-2.22-1-2.56-0.57-0.35-1,0.49-1,1.94,0,1.41,0.45,2.56,1,2.56s1-0.88,1-1.94zm15.59-2.68c7.63-6.52,6.75-7.52-1.09-1.23-3.58,2.86-6.5,5.35-6.5,5.53,0,1.32,3.01-0.39,7.59-4.3zm-5.49-4.47l3.9-3.08-0.01-30.67v-30.66l-3.09-1.76c-1.7-0.97-3.33-2.66-3.61-3.75-0.73-2.8-3.75-2.48-5.12,0.54-0.64,1.39-1.83,2.78-2.66,3.1-1.3,0.5-1.51,4.79-1.51,30.87v30.29l3.75,3.97c2.06,2.19,3.91,4.03,4.1,4.1,0.2,0.08,2.11-1.25,4.25-2.95zm3.9-75.17c0-7.01-0.1-7.3-2.84-8.51-1.56-0.69-3.44-2.38-4.17-3.74-1.06-1.99-2.1-2.49-5.16-2.49h-3.83v10c0,5.5,0.25,10,0.55,10s1.02-1.35,1.6-3c0.95-2.72,1.45-3,5.45-3,3.85,0,4.4,0.27,4.4,2.17,0,1.82,2.51,5.83,3.65,5.83,0.19,0,0.35-3.27,0.35-7.26zm-0.01-84.49v-73.75l-3.09-1.76c-1.7-0.97-3.33-2.66-3.61-3.75-0.72-2.73-4.14-2.53-5.21,0.3-0.48,1.26-1.59,2.89-2.48,3.62-1.44,1.2-1.6,8.34-1.6,71.71v70.38h5.5c4.22,0,5.5,0.35,5.5,1.5,0,1.39,3.36,5.5,4.5,5.5,0.27,0,0.5-33.19,0.49-73.75zm-88.99-37.75v-25.5h-20-20v25.5,25.5h20,20v-25.5zm-49.26-6.75c-0.17-5.64-0.32-1.03-0.32,10.25,0,11.27,0.15,15.89,0.32,10.25,0.18-5.64,0.18-14.86,0-20.5zm3,0c-0.17-5.64-0.32-1.03-0.32,10.25,0,11.27,0.15,15.89,0.32,10.25,0.18-5.64,0.18-14.86,0-20.5zm3.01-0.45c-0.18-5.94-0.33-1.35-0.33,10.2s0.15,16.41,0.32,10.8c0.18-5.61,0.18-15.06,0.01-21zm49,0c-0.18-5.94-0.33-1.35-0.33,10.2s0.15,16.41,0.32,10.8c0.18-5.61,0.18-15.06,0.01-21zm9,0c-0.18-5.94-0.33-1.35-0.33,10.2s0.15,16.41,0.32,10.8c0.18-5.61,0.18-15.06,0.01-21zm-67.01-0.11c-0.18-5.33-0.32-0.69-0.32,10.31s0.15,15.36,0.33,9.69c0.17-5.66,0.17-14.66-0.01-20zm61-0.44c-0.17-5.64-0.32-1.03-0.32,10.25,0,11.27,0.15,15.89,0.32,10.25,0.18-5.64,0.18-14.86,0-20.5zm3,0c-0.17-5.64-0.32-1.03-0.32,10.25,0,11.27,0.15,15.89,0.32,10.25,0.18-5.64,0.18-14.86,0-20.5zm-44.74-23.75c0-0.55-1.38-1-3.06-1-1.78,0-2.8,0.41-2.44,1,0.34,0.55,1.72,1,3.06,1s2.44-0.45,2.44-1zm30.5,0c0.37-0.6-0.82-1-2.94-1-1.96,0-3.56,0.45-3.56,1s1.32,1,2.94,1,3.22-0.45,3.56-1zm-32-4c-0.34-0.55-1.72-1-3.06-1s-2.44,0.45-2.44,1,1.38,1,3.06,1c1.78,0,2.8-0.42,2.44-1zm33.5,0c0-0.55-1.32-1-2.94-1s-3.22,0.45-3.56,1c-0.37,0.59,0.82,1,2.94,1,1.96,0,3.56-0.45,3.56-1zm-36.25-4.25c-0.47-1.45-4.75-2.34-4.75-0.99,0,1.43,1.17,2.24,3.25,2.24,1.09,0,1.74-0.54,1.5-1.25zm37.64-0.32c0.46-1.22,0.01-1.49-2.07-1.25-1.47,0.18-2.85,0.88-3.08,1.57-0.61,1.87,4.43,1.56,5.15-0.32zm88.61-6.83c0-7.33-0.03-7.42-3-8.45-1.65-0.58-3.52-2.19-4.16-3.6-0.95-2.09-1.86-2.55-5-2.55h-3.84v10c0,5.5,0.25,10,0.55,10s1.02-1.35,1.6-3c0.95-2.72,1.45-3,5.45-3,3.99,0,4.4,0.22,4.4,2.43,0,2.08,2.24,5.57,3.57,5.57,0.24,0,0.43-3.33,0.43-7.4zm-129.23,2.21c-0.62-1.85-2.77-2.16-2.77-0.4,0,0.88,0.71,1.59,1.58,1.59s1.41-0.54,1.19-1.19zm42.23-0.39c0-0.93-0.68-1.44-1.67-1.25-2.51,0.49-2.85,2.83-0.41,2.83,1.22,0,2.08-0.65,2.08-1.58zm-45-4.42c0-0.55-0.48-1-1.06-1s-0.78,0.45-0.44,1,0.82,1,1.06,1,0.44-0.45,0.44-1zm46-0.5c0-0.83-0.18-1.5-0.39-1.5-0.22,0-0.66,0.67-0.97,1.5-0.32,0.82-0.14,1.5,0.39,1.5s0.97-0.68,0.97-1.5zm86-18v-10.5h-31.55-31.56l-5.69,6.12c-3.14,3.37-6.09,6.8-6.57,7.63-0.77,1.33,3.27,1.45,34.75,1.08,25.05-0.31,35.62-0.11,35.62,0.65,0,1.53,2.93,5.52,4.06,5.52,0.53,0,0.94-4.59,0.94-10.5z"/>
  <path fill="#315cc4" d="M191.37,662.45c-0.93-1.12-0.63-4.88,1.39-17.22,12.19-74.4,15.6-98.8,15.6-111.47v-12.86l-19.2,0.27-19.21,0.27-10.33,12.5c-5.68,6.88-15.14,18.47-21.01,25.75-5.88,7.29-11.04,13.25-11.47,13.25s-0.78-0.67-0.78-1.49c0-0.83,10.01-21.53,22.24-46l22.25-44.51,19.5-0.06,19.51-0.07,5.99-7.4c3.47-4.29,6.36-7.02,6.87-6.51,0.49,0.49,1.4,0.69,2.02,0.45,0.63-0.24,4.28,2.72,8.1,6.58l6.97,7.01,111.02-0.07,111.03-0.08,6.24-7.33c4.6-5.41,6.73-7.21,8.1-6.85,1.03,0.27,4.96,3.61,8.74,7.41l6.87,6.92h46.76,46.77l0.26-48.75,0.26-48.75,23.87-0.27,23.86-0.26,9.39,9.2c5.16,5.06,9.38,9.61,9.38,10.11,0,1.44-2.92,4.69-11.2,12.48-6.93,6.53-8.1,7.24-11.74,7.24h-4.04l-0.26,49.25-0.26,49.25-65.75,0.26-65.75,0.26v13.79c0,12.42,0.85,19.17,8.51,67.75,4.69,29.67,8.77,55.18,9.08,56.69,0.49,2.38,0.25,2.75-1.78,2.75-1.61,0-7.07-4.25-17.33-13.47-8.24-7.42-15.39-13.49-15.89-13.5-0.5-0.02-7.62,6.56-15.83,14.61-19.19,18.82-18.86,18.98-14.74-7.16,1.65-10.44,3.66-23.03,4.48-27.98,8.44-51.21,10.5-66.89,10.5-79.99v-13.51h-52.34-52.34l-1.15,2.52c-0.63,1.38-2.27,3.03-3.66,3.66l-2.51,1.14v52.45c0,47.41-0.15,52.39-1.58,51.84-0.87-0.33-1.77-0.61-2-0.61-0.63,0-0.48-102.19,0.16-104.55,0.3-1.13,1.87-2.56,3.49-3.17,5.2-1.96,3.4-3.28-4.5-3.28-6.57,0-7.51,0.24-8.07,2.01-0.35,1.11-1.96,2.69-3.56,3.53l-2.92,1.51-0.26,52.64c-0.2,41.04-0.54,52.74-1.51,53.06-0.99,0.33-1.25-10.92-1.25-54.04v-54.46l3-1.25c5.28-2.19,3.26-3-7.5-3h-10.5v52.85c0,51.57-0.05,52.89-2,54.65-2,1.81-2,1.75-2-52.84v-54.66h-33.5-33.5l0.01,11.25c0.01,7.86,1.05,17.74,3.42,32.75,9.55,60.39,14.63,92.7,14.84,94.5,0.16,1.44-0.45,2.1-2.16,2.34-1.81,0.26-3.97-1.2-9-6.07-3.63-3.52-10.45-9.83-15.15-14.02l-8.55-7.62-9.95,9.9c-16.5,16.4-21.06,20.16-22.45,18.48zm11.18-13.92l2.69-2.96-3.14-4.06c-1.72-2.24-3.22-4.21-3.33-4.38-0.12-0.18-0.74,2.97-1.38,7-0.65,4.02-1.43,8.21-1.74,9.31-0.55,2-0.55,2,1.83,0.02,1.31-1.09,3.59-3.31,5.07-4.93zm49.76-3.28c-0.7-4.84-1.4-8.97-1.56-9.18-0.16-0.2-2.58,1.31-5.38,3.36l-5.07,3.73,6.27,5.82c3.44,3.2,6.43,5.65,6.64,5.45,0.2-0.21-0.2-4.34-0.9-9.18zm201.98,4.03l3.44-3.16-3.44-4.49c-1.89-2.47-3.53-4.4-3.65-4.29s-0.85,4.13-1.61,8.91c-1.56,9.72-1.83,9.56,5.26,3.03zm50.06-4.88c-0.66-4.65-1.37-8.46-1.59-8.46s-2.63,1.61-5.36,3.57l-4.96,3.56,6.21,5.85c3.42,3.22,6.37,5.42,6.56,4.9,0.19-0.53-0.2-4.77-0.86-9.42zm-294.06-10.25c-3.95-0.17-7.4-0.07-7.67,0.2-0.28,0.28,0.97,2.35,2.76,4.62l3.26,4.11,4.41-4.32,4.41-4.32-7.17-0.29zm252,0c-3.95-0.17-7.39-0.08-7.66,0.19-0.27,0.26,1.03,2.29,2.87,4.5l3.36,4.01,4.3-4.2,4.3-4.21-7.17-0.29zm-220.89,2.83l3.46-2.96-7.5-0.03-7.5-0.04,3.5,2.99c1.92,1.65,3.74,3,4.04,3,0.29,0,2.09-1.33,4-2.96zm251.98,0.33c2.19-1.45,3.98-2.8,3.98-3s-3.23-0.37-7.19-0.37h-7.18l2.87,3c1.58,1.65,3.02,3,3.21,3,0.18,0,2.12-1.18,4.31-2.63zm-247.02-8.91c0-0.8-21.33-24.96-22.04-24.96-0.33,0-5.06,5.18-10.51,11.5-5.45,6.33-10.25,11.65-10.68,11.84-0.42,0.18-0.77,0.74-0.77,1.25,0,0.52,9.33,0.91,22,0.91,12.1,0,22-0.24,22-0.54zm241.92-12.21c-6.12-7.01-11.42-12.83-11.78-12.93-0.6-0.17-4.66,4.43-17.12,19.43l-5.19,6.25h22.61,22.6l-11.12-12.75zm-271.61-11.4l4.77-5.65-6.66-7.6c-3.66-4.18-6.96-7.6-7.35-7.6-0.38,0-1.94,7.99-3.46,17.75-1.51,9.77-3.02,18.86-3.34,20.22-0.58,2.42,0.84,0.9,16.04-17.12zm245.77,7.65c4.66-5.5,9.07-10.78,9.8-11.73,1.18-1.53,0.5-2.68-5.79-9.8-4.06-4.61-7.29-7.51-7.52-6.77-0.22,0.72-1.59,9.18-3.05,18.8-1.45,9.63-2.89,18.4-3.2,19.5-0.65,2.37-1.16,2.89,9.76-10zm35.35-9.06c-1.78-11.32-3.39-20.71-3.58-20.89-0.77-0.7-13.95,15.67-13.66,16.97,0.22,1,19.77,24.46,20.39,24.48,0.05,0-1.37-9.25-3.15-20.56zm-252.41-1.5c-1.69-10.63-3.21-19.46-3.38-19.63-0.38-0.37-13.47,15.15-13.87,16.44-0.37,1.21,19.6,24.63,20,23.45,0.17-0.52-1.07-9.64-2.75-20.26zm-14.01-14.19l6.31-7.25-6.66-0.29c-3.66-0.17-9.62-0.17-13.25,0l-6.58,0.29,2.65,3c1.46,1.65,4.26,4.92,6.21,7.25,1.95,2.34,3.88,4.25,4.28,4.25,0.41,0,3.58-3.26,7.04-7.25zm251.84,0.34c3.38-3.8,6.15-7.18,6.15-7.5s-5.88-0.59-13.07-0.59h-13.07l6.2,7.5c3.42,4.13,6.53,7.5,6.93,7.5,0.39,0,3.48-3.11,6.86-6.91zm-251.86-19.59c-3.54-3.58-6.73-6.4-7.07-6.25-0.34,0.14-3.21,3.07-6.38,6.5l-5.76,6.25h12.83,12.83l-6.45-6.5zm252.01,0l-6.44-6.5-6.28,6.22c-3.46,3.43-6.28,6.35-6.28,6.5,0,0.16,5.72,0.28,12.72,0.28h12.72l-6.44-6.5zm-244.58-8.12c-0.91-5.43-1.79-10.03-1.96-10.21-0.45-0.51-8.46,7.48-8.46,8.44,0,1.01,11.24,12.49,11.74,11.99,0.19-0.19-0.4-4.79-1.32-10.22zm252.13-0.04c-0.92-5.39-1.78-9.9-1.92-10.04s-2.24,1.76-4.66,4.23l-4.4,4.48,5.91,5.97c3.25,3.29,6.09,5.78,6.32,5.56,0.23-0.23-0.34-4.82-1.25-10.2zm-275.19,3.91l5.57-5.75-4.18-4.25c-2.85-2.9-4.38-3.85-4.83-3-0.59,1.11-2.92,15.33-2.92,17.79,0,1.61,0.58,1.17,6.36-4.79zm252.13,0.05l5.52-5.71-4.19-4.27c-2.31-2.35-4.36-4.11-4.57-3.9-0.34,0.34-3.24,17.14-3.25,18.83,0,1.47,1.03,0.68,6.49-4.95zm-239.49-12.8l3.39-3.5h-7.39-7.39l3.39,3.5c1.87,1.93,3.67,3.5,4,3.5s2.13-1.57,4-3.5zm252.43,0l3.61-3.5h-7.72-7.71l3.82,3.5c2.1,1.93,3.95,3.5,4.11,3.5s1.91-1.57,3.89-3.5zm-325.82-16.22c4.09-5.08,9.36-11.27,11.71-13.75l4.28-4.53h18.7,18.7v-7-7h-18.25l-18.25,0.01-14.76,23.74c-8.12,13.07-13.6,22.4-12.17,20.75s5.95-7.15,10.04-12.22zm1.97-13.74l13.92-22.46,18.75-0.04,18.75-0.04v-7-7h-18.49-18.5l-8.64,17.25c-9.42,18.8-20.4,41.75-19.97,41.75,0.15,0,6.53-10.11,14.18-22.46zm79.42,10.46v-11h-11.5-11.5v11,11h11.5,11.5v-11zm252,0v-11h-11.5-11.5v11,11h11.5,11.5v-11zm-252-22v-7h-11.5-11.5v7,7h11.5,11.5v-7zm95.77,5.82c-0.41-1.23-2.09-2.31-5.02-3.21-1.33-0.41-1.75-1.63-1.75-5.08v-4.53h-42.5-42.5v7,7h46.08c34.94,0,45.99-0.28,45.69-1.18zm19.23,0.29c0-1.16-2.52-2.11-5.58-2.11-2.19,0-2.42-0.41-2.42-4.41,0-3.91,0.32-4.54,2.75-5.42,2.17-0.8,0.59-1.03-7.5-1.09l-10.25-0.08v3.39c0,2.81,0.44,3.51,2.57,4.04,1.41,0.36,3.32,1.98,4.25,3.6,1.62,2.85,1.95,2.96,8.93,2.97,3.99,0,7.25-0.4,7.25-0.89zm109-6.11v-7l-52.75,0.03c-50.81,0.02-52.84,0.09-55.25,1.97-1.38,1.08-3.06,1.97-3.75,1.98-2.17,0.04-1.35,2.66,1.2,3.82,1.34,0.61,3.19,2.26,4.11,3.66l1.67,2.54h52.38,52.39v-7zm28,0v-7h-11.5-11.5v7,7h11.5,11.5v-7zm134.24-41.75l0.26-48.75,5.06-0.29c4.76-0.28,5.53-0.74,13-7.72l7.94-7.43-20.74-0.03-20.74-0.03-0.26,49.25-0.26,49.25-56.75,0.26-56.75,0.26v6.99,6.99h64.49,64.49l0.26-48.75zm-386.24,23.75v-7h-11.5-11.5v7,7h11.5,11.5v-7zm115.47,4.75c-0.82-2.73-3.22-4.75-5.66-4.75-1.4,0-1.81-0.79-1.81-3.5v-3.5h-52-52v7,7h56.07,56.06l-0.66-2.25zm108.53-4.75v-7h-56c-53.08,0-56,0.1-56,1.79,0,0.98,1.3,2.55,2.89,3.49,2.82,1.67,4.76,5.87,3.58,7.77-0.37,0.6,19.06,0.95,52.47,0.95h53.06v-7zm28,0v-7h-11.5-11.5v7,7h11.5,11.5v-7zm115-41.39c0-43.21,0.17-48.46,1.58-49,0.87-0.33,10.87-0.61,22.23-0.61h20.64l-7.45-7.5-7.45-7.5h-21.78-21.77v48.9c0,43.66-0.17,48.95-1.58,49.5-0.87,0.33-22.47,0.6-48,0.6h-46.42v7,7h55,55v-48.39zm-374.81,25.2l-5-5.19-2.85,3.36c-6.31,7.45-6.54,7.02,3.7,7.02h9.15l-5-5.19zm252.34,0.22c-5.43-5.51-5.39-5.51-10.65,1.13l-3.05,3.84h9.3,9.29l-4.89-4.97z"/>
  <text style="writing-mode:lr-tb;text-anchor:middle;text-align:center;" font-weight="normal" xml:space="preserve" font-stretch="normal" line-height="100%" font-variant="normal" y="426.51035" x="358.53589" font-family="Arial" font-style="normal" fill="#000000"><tspan style="writing-mode:lr-tb;text-anchor:middle;text-align:center;" font-size="32px" line-height="100%" y="426.51035" x="362.97339">Transmission lines </tspan><tspan style="writing-mode:lr-tb;text-anchor:middle;text-align:center;" font-size="28px" line-height="100%" y="455.83652" x="358.53589">765, 500, 345, 230, and 138 kV</tspan></text>
  <flowRoot font-weight="normal" xml:space="preserve" font-size="20px" font-style="normal" font-family="Bitstream Vera Sans" fill="#000000"><flowRegion><rect y="122.08" width="215.3" x="469.51" height="32.425"/></flowRegion><flowPara/></flowRoot>
  <flowRoot font-weight="normal" xml:space="preserve" font-size="20px" font-style="normal" font-family="Bitstream Vera Sans" fill="#000000"><flowRegion><rect y="105.22" width="290.53" x="387.8" height="32.425"/></flowRegion><flowPara/></flowRoot>
  <text style="writing-mode:lr-tb;text-anchor:middle;text-align:center;" font-weight="normal" xml:space="preserve" font-size="28px" font-style="normal" font-stretch="normal" font-variant="normal" y="705.36475" x="357.23892" font-family="Arial" line-height="100%" fill="#000000"><tspan x="357.23892" y="705.36475">Transmission Customer</tspan><tspan x="357.23892" y="733.36475">138kV or 230kV</tspan></text>
  <text style="writing-mode:lr-tb;text-anchor:middle;text-align:center;" font-weight="normal" xml:space="preserve" font-size="28px" font-style="normal" font-stretch="normal" font-variant="normal" y="527.86218" x="-57.5" font-family="Arial" line-height="100%" fill="#000000"><tspan x="-57.5" y="527.86218">Generating Station</tspan><tspan x="-57.5" y="555.86218"/></text>
  <text style="writing-mode:lr-tb;text-anchor:middle;text-align:center;" font-weight="normal" xml:space="preserve" font-size="28px" font-style="normal" font-stretch="normal" font-variant="normal" y="723.52277" x="100.43341" font-family="Arial" line-height="100%" fill="#000000"><tspan x="100.43341" y="723.52277">Generating</tspan><tspan x="100.43341" y="751.52277">Step Up</tspan><tspan x="100.43341" y="779.52277">Transformer</tspan></text>
  <text style="writing-mode:lr-tb;text-anchor:middle;text-align:center;" font-weight="normal" xml:space="preserve" font-size="28px" font-style="normal" font-stretch="normal" font-variant="normal" y="320.15656" x="676.30023" font-family="Arial" line-height="100%" fill="#000000"><tspan x="676.30023" y="320.15656">Substation</tspan><tspan x="676.30023" y="348.15656">Step Down</tspan><tspan x="676.30023" y="376.15656">Transformer</tspan></text>
  <text style="writing-mode:lr-tb;text-anchor:start;text-align:start;" font-weight="normal" xml:space="preserve" font-size="28px" font-style="normal" font-stretch="normal" font-variant="normal" y="357.86218" x="-82.5" font-family="Arial" line-height="100%" fill="#d40000"><tspan x="-82.5" y="357.86218">Generation</tspan></text>
  <flowRoot style="writing-mode:lr-tb;text-anchor:middle;text-align:center;" font-weight="normal" xml:space="preserve" font-size="28px" font-stretch="normal" font-variant="normal" font-style="normal" font-family="Arial" line-height="100%" fill="#000000"><flowRegion><rect y="76.689" width="77.82" x="208.82" height="32.425"/></flowRegion><flowPara/></flowRoot>
  <text style="writing-mode:lr-tb;text-anchor:start;text-align:start;" font-weight="normal" xml:space="preserve" font-size="28px" font-style="normal" font-stretch="normal" font-variant="normal" y="417.86218" x="-177.5" font-family="Arial" line-height="100%" fill="#06971d"><tspan x="-177.5" y="417.86218">Green:</tspan><tspan x="-177.5" y="445.86218"/></text>
  <rect opacity="0" transform="translate(-187.5,288.86218)" height="133.59" width="260.7" y="9.2454" x="3.891" stroke-width="1.795"/>
  <rect opacity="0" transform="translate(-187.5,288.86218)" height="81.711" width="146.56" y="58.531" x="118.03" stroke-width="1.795"/>
  <text style="writing-mode:lr-tb;text-anchor:start;text-align:start;" font-weight="normal" xml:space="preserve" font-size="28px" font-style="normal" font-stretch="normal" font-variant="normal" y="387.86218" x="-177.5" font-family="Arial" line-height="100%" fill="#2936cb"><tspan x="-177.5" y="387.86218">Blue:</tspan></text>
  <rect stroke-dashoffset="0" ry="0" height="160" width="275" stroke="#121318" stroke-dasharray="none" stroke-miterlimit="4" y="297.86" x="-182.5" stroke-width="2" fill="none"/>
  <text style="writing-mode:lr-tb;text-anchor:start;text-align:start;" font-weight="normal" xml:space="preserve" font-size="28px" font-style="normal" font-stretch="normal" font-variant="normal" y="358.47549" x="1056.1089" font-family="Arial" line-height="100%" fill="#000000"><tspan style="writing-mode:lr-tb;text-anchor:middle;text-align:center;" line-height="100%" y="358.47549" x="1056.1089">Subtransmission</tspan><tspan style="writing-mode:lr-tb;text-anchor:middle;text-align:center;" line-height="100%" y="386.47549" x="1056.1089">Customer</tspan><tspan style="writing-mode:lr-tb;text-anchor:middle;text-align:center;" line-height="100%" y="414.47549" x="1056.1089">26kV and 69kV</tspan></text>
  <text style="writing-mode:lr-tb;text-anchor:middle;text-align:center;" font-weight="normal" xml:space="preserve" font-size="28px" font-style="normal" font-stretch="normal" font-variant="normal" y="545.56708" x="1063.4457" font-family="Arial" line-height="100%" fill="#000000"><tspan x="1063.4457" y="545.56708">Primary Customer</tspan><tspan x="1063.4457" y="573.56708">13kV and 4kV</tspan></text>
  <text style="writing-mode:lr-tb;text-anchor:middle;text-align:center;" font-weight="normal" xml:space="preserve" font-size="28px" font-style="normal" font-stretch="normal" font-variant="normal" y="699.64252" x="1072.6169" font-family="Arial" line-height="100%" fill="#000000"><tspan x="1072.6169" y="699.64252">Secondary Customer</tspan><tspan x="1072.6169" y="727.64252">120V and 240V</tspan></text>
  <text style="writing-mode:lr-tb;text-anchor:start;text-align:start;" line-height="100%" font-weight="normal" font-size="28px" font-style="normal" font-stretch="normal" font-variant="normal" y="387.86218" x="-82.5" font-family="Arial" xml:space="preserve" fill="#2936cb"><tspan y="387.86218" x="-82.5">Transmission</tspan></text>
  <text style="writing-mode:lr-tb;text-anchor:start;text-align:start;" line-height="100%" font-weight="normal" font-size="28px" font-style="normal" font-stretch="normal" font-variant="normal" y="417.86218" x="-82.5" font-family="Arial" xml:space="preserve" fill="#06971d"><tspan y="417.86218" x="-82.5">Distribution</tspan><tspan y="445.86218" x="-82.5"/></text>
  <text style="writing-mode:lr-tb;text-anchor:start;text-align:start;" line-height="100%" font-weight="normal" font-size="28px" font-style="normal" font-stretch="normal" font-variant="normal" y="322.86218" x="-177.5" font-family="Arial" xml:space="preserve" fill="#050c07"><tspan y="322.86218" x="-177.5">Color Key:</tspan><tspan y="350.86218" x="-177.5"/></text>
  <text style="writing-mode:lr-tb;text-anchor:start;text-align:start;" line-height="100%" font-weight="normal" font-size="28px" font-style="normal" font-stretch="normal" font-variant="normal" y="357.86218" x="-177.5" font-family="Arial" xml:space="preserve" fill="#d40000"><tspan y="357.86218" x="-177.5">Red: </tspan></text>
  <text style="writing-mode:lr-tb;text-anchor:start;text-align:start;" line-height="100%" font-weight="normal" font-size="28px" font-style="normal" font-stretch="normal" font-variant="normal" y="447.86218" x="-82.5" font-family="Arial" xml:space="preserve" fill="#050c07"><tspan y="447.86218" x="-82.5">Customer</tspan></text>
  <text style="writing-mode:lr-tb;text-anchor:start;text-align:start;" font-weight="normal" xml:space="preserve" font-size="28px" font-style="normal" font-stretch="normal" font-variant="normal" y="447.86218" x="-177.5" font-family="Arial" line-height="100%" fill="#050c07"><tspan x="-177.5" y="447.86218">Black: </tspan></text>
  <path fill="#000" d="m817.5,735.85c0-10.216,0.3964-15.648,1.2405-17,0.9874-1.5811,0.9874-2.3918,0-3.9729-0.8441-1.3516-1.2405-6.7843-1.2405-17v-15.014h50,50v-13.5-13.5h5.5,5.5v47.5,47.5h-55.5-55.5zm44,0.0136,0-12,7,0,7,0,0,12,0,12,20.5,0,20.5,0,0-14.5,0-14.5-47.5,0-47.5,0,0,14.5,0,14.5,20,0,20,0zm-37-3,0-9,15.5,0,15.5,0,0,9,0,9-15.5,0-15.5,0zm28,0.5,0-5.5-12.5,0-12.5,0,0,5.5,0,5.5,12.5,0,12.5,0zm29,0,0-8.5,15.5,0,15.5,0,0,8.5,0,8.5-15.5,0-15.5,0zm28,0,0-5.5-12.5,0-12.5,0,0,5.5,0,5.5,12.5,0,12.5,0zm17-30,0-44.5-3,0-3,0,0,44.5,0,44.5,3,0,3,0zm-54,34,0-9.5-3.5,0-3.5,0,0,9.5,0,9.5,3.5,0,3.5,0zm44-36.5,0-15-47.5,0-47.5,0,0,15,0,15,47.5,0,47.5,0zm-85,1.8047c0-5.3608,0.3619-6.5731,2.6871-9,3.292-3.4361,3.7761-3.4515,7.9685-0.25383,3.1831,2.4279,3.3444,2.8619,3.3444,9v6.4491h-7-7zm8,0.19528c0-0.55-0.675-1-1.5-1s-1.5,0.45-1.5,1,0.675,1,1.5,1,1.5-0.45,1.5-1zm1.5-8c-2.2433-2.4788-2.7004-2.4815-5.6392-0.0333l-2.3608,1.9667,4.905,0.0333c4.8423,0.0328,4.8818,0.008,3.095-1.9667zm46.5,7.6743c0-5.2931,0.3673-6.6563,2.25-8.3512,3.8373-3.4545,4.6169-3.5264,8.2441-0.75977,3.3622,2.5645,3.5059,2.9356,3.5059,9.0554v6.3813h-7-7zm7.1875,0.64258c-0.7219-0.28887-1.5844-0.25335-1.9167,0.0789-0.3323,0.33229,0.2584,0.56864,1.3125,0.52522,1.165-0.048,1.4019-0.28494,0.6042-0.60416zm2.0347-8.5391-2.2222-2.2222-2.2222,2.2222-2.2222,2.2222,4.4444,0,4.4444,0zm-591.22-31.27v-2.5h26.382,26.382l0.68174-8.75c1.0095-12.957,0.48403-12.25,9.1108-12.25,5.5019,0,7.9281,0.43407,9.3814,1.6784,3.0166,2.5829,1.5907,3.3216-6.411,3.3216h-7.3557l-0.64509,7.75c-0.3548,4.2625-0.87895,8.9875-1.1648,10.5l-0.51968,2.75h-27.921-27.921zm77.704,1.8705c-0.3871-0.3871-0.70382-1.5288-0.70382-2.5372,0-1.5897,0.86364-1.8333,6.5-1.8333h6.5v-40-40h2.5108,2.5109l-0.26086,42.25-0.26085,42.25-8.0462,0.28715c-4.4254,0.15793-8.3629-0.0296-8.75-0.41667zm-82.5-1.57c-0.80795-0.80795-1.2-5.3691-1.2-13.961,0-14.24,0.25107-14.822,8.1578-18.899,2.0118-1.0374,3.8282-2.3975,4.0365-3.0225,0.22672-0.68018,2.9733,0.50951,6.8422,2.9638,3.5549,2.255,7.2475,4.1043,8.2058,4.1096,0.95825,0.005,2.9832-1.3843,4.5-3.0878,4.1858-4.7013,5.9404-5.3406,9.0556-3.2994,1.4651,0.95996,3.3474,2.5195,4.1829,3.4656,0.83553,0.94608,2.7566,2.0012,4.2691,2.3447l2.75,0.62457v-30.519-30.519l5.25,0.0318c5.4475,0.033,8.7319,1.5587,8.0044,3.7182-0.24685,0.73275-2.1453,1.2498-4.5878,1.2494l-4.17,0.01,0.27829,30.501c0.32224,35.318,1.1284,33.265-10.238,26.077l-6.9598-4.4011-3.0402,2.5639c-1.6721,1.4101-4.5412,3.1928-6.3759,3.9616-3.1679,1.3274-3.5829,1.2391-8.25-1.7558-2.7029-1.7344-4.9143-3.5566-4.9143-4.0492,0-1.8053-2.3314-0.80205-7.2652,3.1263l-5.0515,4.0221,0.22821,12.978c0.18345,10.432-0.0405,12.978-1.1416,12.978-0.75342,0-1.9098-0.54-2.5698-1.2zm77.944-0.12672c-0.62766-0.75628-1.3888-3.5797-1.6914-6.2742-0.30259-2.6945-0.74193-6.1366-0.97631-7.6491-0.34333-2.2156-0.0423-2.75,1.5489-2.75,1.0862,0,2.0094,0.3375,2.0515,0.75s0.23833,1.6129,0.4361,2.6675c0.63432,3.3825,0.85335,13.55,0.30374,14.099-0.29224,0.29224-1.0449-0.0874-1.6725-0.84371zm1.5112-34.502c-1.4398-1.5909-1.655-4.8422-1.655-25v-23.171h2.5,2.5v22.5c0,21.833,0.0593,22.5,2,22.5,1.9454,0,2-0.66667,2-24.418,0-13.43,0.27314-25.13,0.60699-26,0.88962-2.3183,8.578-2.1398,10.74,0.24936,2.0767,2.2947,1.2453,3.1688-3.0139,3.1688h-3.3333v24.418c0,13.43-0.27314,25.13-0.60699,26-0.90227,2.3513-9.5513,2.1693-11.738-0.24695zm-18.412-0.3286c-0.92-0.92-1.24-7.41-1.24-25.04v-23.8h2.5,2.5v23c0,22.333,0.058,23,2,23,1.9487,0,2-0.66667,2-26v-26h5.345c3.9107,0,5.7897,0.49137,7.0022,1.8312,2.1614,2.3883,1.2339,3.169-3.7639,3.1682h-4.08v25.251,25.251l-5.5073,0.29266c-3.4206,0.18178-5.9782-0.17817-6.75-0.95zm464.37-31.41c-1.0804-2.8153-0.6523-5.4272,0.8895-5.4272,0.8333,0,1.5,0.88889,1.5,2,0,1.9725,0.6667,2,48.5,2h48.5v-40-40h-9.9725-9.9726l-0.2774,14.25-0.2775,14.25-38.25,0.26188-38.25,0.26189v2.9881c0,2.0362-0.4953,2.9881-1.5548,2.9881-1.2309,0-1.4913-0.98936-1.25-4.75l0.3048-4.75,26.75-0.26633,26.75-0.26634v-26.484-26.484h6,6v26.5,26.5h5.5,5.5v-12.418c0-6.83,0.2731-13.13,0.607-14,0.5082-1.3245,2.62-1.5818,12.981-1.5818,12.004,0,12.39,0.0674,12.921,2.25,0.301,1.2375,0.422,20.475,0.2691,42.75l-0.2781,40.5-51.14,0.25902c-45.984,0.23291-51.201,0.0986-51.75-1.3318zm-0.61-17.43c0-4.6667,0.3333-6,1.5-6s1.5,1.3333,1.5,6-0.3333,6-1.5,6-1.5-1.3333-1.5-6zm0-17.5c0-5.1111,0.3205-6.5,1.5-6.5s1.5,1.3889,1.5,6.5-0.3205,6.5-1.5,6.5-1.5-1.3889-1.5-6.5zm11-6,0-4.5,5,0,5,0,0,4.5,0,4.5-5,0-5,0zm6,0c0-0.825-0.675-1.5-1.5-1.5s-1.5,0.675-1.5,1.5,0.675,1.5,1.5,1.5,1.5-0.675,1.5-1.5zm10,0,0-4.5,5,0,5,0,0,4.5,0,4.5-5,0-5,0zm7,0c0-0.83333-0.8889-1.5-2-1.5s-2,0.66667-2,1.5,0.8889,1.5,2,1.5,2-0.66667,2-1.5zm10,0,0-4.5,5,0,5,0,0,4.5,0,4.5-5,0-5,0zm8-0.11658c0-0.80898-1.0381-1.3834-2.5-1.3834-1.7712,0-2.5,0.54258-2.5,1.8613,0,1.4462,0.5576,1.7547,2.5,1.3834,1.375-0.26285,2.5-1.1004,2.5-1.8613zm10,0.11658,0-4.5,5,0,5,0,0,4.5,0,4.5-5,0-5,0zm7,0.5v-1.75c0-1.5785-3.4895-0.66253-3.8096,1-0.2335,1.2123,0.3,1.75,1.7363,1.75,1.1403,0,2.0733-0.45,2.0733-1zm9-0.5,0-4.5,5,0,5,0,0,4.5,0,4.5-5,0-5,0zm7,0.5v-1.75c0-1.5785-3.4895-0.66253-3.8096,1-0.2335,1.2123,0.3,1.75,1.7363,1.75,1.1403,0,2.0733-0.45,2.0733-1zm-84.39-128.57c-1.0804-2.8153-0.6523-5.4272,0.8895-5.4272,0.8333,0,1.5,0.88889,1.5,2,0,1.9725,0.6667,2,48.5,2h48.5v-40-40h-9.9725-9.9726l-0.2774,14.25-0.2775,14.25-38.25,0.26188-38.25,0.26188v2.9881c0,2.0385-0.495,2.9881-1.5575,2.9881-1.2139,0-1.4897-0.93754-1.25-4.25l0.3075-4.25,26.75-0.26633,26.75-0.26634v-26.984-26.984h6,6v27,27h5.5,5.5v-12.918c0-7.105,0.2731-13.63,0.607-14.5,0.5082-1.3245,2.62-1.5818,12.981-1.5818,12.004,0,12.39,0.0674,12.921,2.25,0.301,1.2375,0.422,20.475,0.2691,42.75l-0.2781,40.5-51.14,0.25902c-45.984,0.23291-51.201,0.0987-51.75-1.3318zm-0.61-16.93c0-5.1111,0.3205-6.5,1.5-6.5s1.5,1.3889,1.5,6.5-0.3205,6.5-1.5,6.5-1.5-1.3889-1.5-6.5zm0-18c0-5.1111,0.3205-6.5,1.5-6.5s1.5,1.3889,1.5,6.5-0.3205,6.5-1.5,6.5-1.5-1.3889-1.5-6.5zm11-6,0-4.5,5,0,5,0,0,4.5,0,4.5-5,0-5,0zm6,0c0-0.825-0.675-1.5-1.5-1.5s-1.5,0.675-1.5,1.5,0.675,1.5,1.5,1.5,1.5-0.675,1.5-1.5zm10,0,0-4.5,5,0,5,0,0,4.5,0,4.5-5,0-5,0zm7.3201-0.38382c-0.3337-1.2761-1.11-1.7224-2.4064-1.3834-2.7672,0.72364-2.3837,3.2672,0.4927,3.2672,1.8646,0,2.2954-0.42414,1.9137-1.8838zm9.6799,0.38382,0-4.5,5,0,5,0,0,4.5,0,4.5-5,0-5,0zm8,0c0-0.93333-0.9444-1.5-2.5-1.5s-2.5,0.56667-2.5,1.5,0.9444,1.5,2.5,1.5,2.5-0.56667,2.5-1.5zm10,0,0-4.5,5,0,5,0,0,4.5,0,4.5-5,0-5,0zm7.3096-0.13563c-0.6452-1.6814-4.4593-1.4529-5.0366,0.30165-0.4064,1.235,2.4162,2.2369,4.4139,1.5667,0.6527-0.21901,0.933-1.0598,0.6227-1.8683zm8.6904,0.13563,0-4.5,5,0,5,0,0,4.5,0,4.5-5,0-5,0zm7.3299-0.0828c-0.7176-1.87-5.3299-1.8618-5.3299,0.009,0,1.4838,2.6285,2.4966,4.6869,1.806,0.6527-0.21901,0.9421-1.036,0.643-1.8154z"/>
 </g>
</svg>
